<?xml version="1.0" standalone="no"?>
<!DOCTYPE svg PUBLIC "-//W3C//DTD SVG 20010904//EN"
 "http://www.w3.org/TR/2001/REC-SVG-20010904/DTD/svg10.dtd">
<svg version="1.0" xmlns="http://www.w3.org/2000/svg"
 width="500.000000pt" height="500.000000pt" viewBox="0 0 500.000000 500.000000"
 preserveAspectRatio="xMidYMid meet">

<g transform="translate(0.000000,500.000000) scale(0.100000,-0.100000)"
fill="#000000" stroke="none">
<path d="M2480 3503 c0 -6 59 -13 138 -16 239 -11 371 -61 713 -272 64 -39 69
-44 50 -54 -37 -20 -64 -11 -182 64 l-117 76 -26 -26 c-33 -33 -61 -32 -94 3
-15 16 -55 45 -88 65 l-62 37 -237 0 c-236 0 -320 -7 -131 -11 75 -2 95 -5 84
-13 -22 -16 -21 -66 1 -58 14 5 14 3 3 -10 -9 -12 -10 -18 -2 -23 8 -5 6 -11
-6 -19 -12 -9 -14 -15 -5 -20 6 -4 8 -12 5 -18 -4 -6 -2 -8 4 -4 5 3 13 0 15
-6 3 -8 6 -9 6 -2 1 6 13 10 29 7 22 -3 23 -2 8 5 -19 8 -19 9 2 14 12 4 20 2
16 -3 -3 -5 0 -9 6 -9 6 0 8 -4 5 -10 -3 -5 -2 -10 3 -10 6 0 8 -8 5 -19 -3
-14 5 -22 37 -35 23 -9 46 -13 52 -10 6 4 8 2 5 -3 -21 -33 204 -59 381 -44
68 6 127 13 131 15 3 2 42 12 86 21 44 9 87 23 97 31 39 36 298 -63 421 -162
32 -25 56 -48 54 -50 -2 -2 -29 10 -59 26 -112 61 -264 100 -386 100 -68 0
-194 -19 -267 -41 -22 -7 -85 -17 -140 -24 -99 -12 -99 -13 -35 -14 46 -1 61
-4 50 -11 -12 -8 -9 -10 11 -10 15 0 32 -7 39 -15 10 -12 -4 -14 -105 -12 -99
2 -112 0 -88 -10 15 -7 60 -12 100 -13 66 0 78 4 170 50 185 95 274 91 437
-19 39 -27 85 -55 103 -64 43 -23 134 -32 174 -18 18 6 34 9 37 7 8 -8 -10
-46 -49 -105 l-40 -60 21 -40 20 -41 -96 0 c-88 0 -95 1 -88 18 4 9 10 45 12
80 6 97 -41 177 -133 225 -59 31 -156 30 -215 -3 -53 -30 -105 -96 -121 -153
-11 -40 -8 -113 6 -148 6 -16 -19 -31 -70 -42 -11 -3 14 -5 55 -4 41 0 65 2
53 4 -24 5 -31 19 -12 25 7 2 7 12 -1 33 -24 63 -3 185 39 225 28 27 118 60
163 60 78 -1 158 -52 192 -124 23 -48 21 -138 -4 -186 l-20 -40 140 0 140 0
-10 25 c-5 14 -16 38 -25 54 -14 28 -13 32 19 80 19 27 42 71 52 96 l17 46
-44 45 c-117 120 -290 214 -452 245 -32 6 -89 34 -165 81 -167 104 -344 191
-442 218 -65 17 -121 24 -237 28 -97 3 -153 1 -153 -5z m110 -140 c-8 -3 -23
-15 -35 -25 -20 -20 -20 -20 18 -13 35 7 37 6 37 -19 0 -23 -4 -26 -32 -26
-24 0 -29 -3 -18 -9 8 -6 17 -8 21 -5 4 2 7 -4 6 -15 -2 -26 -41 -45 -56 -27
-9 10 -7 15 5 20 10 4 21 1 26 -6 6 -10 8 -8 8 5 0 9 -7 17 -16 17 -11 0 -13
6 -9 19 3 11 -1 25 -10 34 -14 14 -13 17 5 30 11 7 17 17 13 20 -3 4 7 7 23 6
16 0 22 -3 14 -6z m180 -28 c0 -19 -6 -24 -36 -27 -19 -2 -38 0 -41 5 -4 6 -1
7 7 2 9 -6 12 -1 8 21 -4 28 -2 29 29 26 27 -3 33 -9 33 -27z m110 -110 l0
-45 -55 0 -55 0 0 45 0 45 55 0 55 0 0 -45z m-160 -1 c0 -20 -5 -24 -29 -24
-24 0 -29 5 -33 28 -4 26 -2 27 29 24 27 -3 33 -9 33 -28z m954 -239 c84 -26
188 -77 174 -87 -29 -18 -76 -7 -150 37 -108 63 -115 77 -24 50z"/>
<path d="M2275 3460 c-16 -7 -17 -9 -3 -9 9 -1 20 4 23 9 7 11 7 11 -20 0z"/>
<path d="M2323 3434 c-3 -8 -2 -19 3 -24 5 -5 9 1 9 16 0 28 -3 30 -12 8z"/>
<path d="M2367 3440 c8 -9 73 -14 235 -18 190 -4 227 -7 248 -22 14 -10 45
-27 69 -40 24 -12 54 -33 67 -47 26 -28 54 -25 54 7 0 11 -3 20 -7 21 -37 3
-99 30 -159 69 l-47 29 -224 1 c-124 0 -230 3 -236 6 -9 5 -9 4 0 -6z"/>
<path d="M2033 3393 c15 -2 39 -2 55 0 15 2 2 4 -28 4 -30 0 -43 -2 -27 -4z"/>
<path d="M2198 3393 c6 -2 18 -2 25 0 6 3 1 5 -13 5 -14 0 -19 -2 -12 -5z"/>
<path d="M2255 3360 c3 -5 8 -10 11 -10 2 0 4 5 4 10 0 6 -5 10 -11 10 -5 0
-7 -4 -4 -10z"/>
<path d="M2173 3323 c9 -2 23 -2 30 0 6 3 -1 5 -18 5 -16 0 -22 -2 -12 -5z"/>
<path d="M2430 3261 c0 -5 7 -12 16 -15 14 -5 15 -4 4 9 -14 17 -20 19 -20 6z"/>
<path d="M2480 3226 c0 -2 7 -7 16 -10 8 -3 12 -2 9 4 -6 10 -25 14 -25 6z"/>
<path d="M2300 3186 c0 -2 7 -7 16 -10 8 -3 12 -2 9 4 -6 10 -25 14 -25 6z"/>
<path d="M2562 3185 c2 -1 12 -7 24 -13 16 -8 21 -8 21 2 0 8 -11 14 -24 14
-13 0 -23 -2 -21 -3z"/>
<path d="M2544 3139 c-3 -6 -3 -13 0 -16 3 -4 6 0 6 8 0 9 6 6 18 -8 10 -13
22 -19 29 -15 8 5 2 13 -17 24 -19 11 -32 13 -36 7z"/>
<path d="M2489 3117 c6 -8 7 -18 3 -22 -4 -5 -1 -5 6 -1 10 6 10 11 1 22 -6 8
-14 14 -16 14 -3 0 0 -6 6 -13z"/>
<path d="M2612 3101 c-10 -6 -4 -12 20 -22 18 -8 36 -13 41 -11 4 1 7 -3 7 -9
0 -5 5 -7 10 -4 6 3 10 1 10 -4 0 -6 10 -11 22 -11 l21 0 -23 20 c-12 11 -27
17 -31 14 -5 -3 -9 0 -9 7 0 7 -3 10 -6 6 -4 -3 -13 0 -21 8 -17 17 -23 18
-41 6z"/>
<path d="M2892 3049 c-4 -4 -18 -9 -32 -12 -14 -2 25 -5 85 -6 61 0 124 -5
142 -10 24 -7 35 -6 44 5 6 8 9 17 6 20 -8 9 -236 11 -245 3z"/>
<path d="M1988 3033 c12 -2 32 -2 45 0 12 2 2 4 -23 4 -25 0 -35 -2 -22 -4z"/>
<path d="M2258 3033 c12 -2 32 -2 45 0 12 2 2 4 -23 4 -25 0 -35 -2 -22 -4z"/>
<path d="M2560 3001 c0 -5 -30 -9 -66 -10 -37 0 -69 -3 -72 -5 -10 -11 143 -4
156 7 10 8 15 8 20 0 4 -6 30 -20 58 -31 41 -17 51 -18 51 -6 0 8 -2 12 -5 10
-2 -3 -18 4 -34 14 -17 10 -38 16 -46 12 -8 -3 -13 -1 -9 4 3 6 -8 11 -24 12
-16 1 -29 -2 -29 -7z"/>
<path d="M3300 2984 c-60 -19 -93 -45 -84 -67 9 -24 20 -22 73 17 25 18 66 40
91 49 l45 15 -40 1 c-22 0 -60 -7 -85 -15z"/>
<path d="M2378 2983 c6 -2 18 -2 25 0 6 3 1 5 -13 5 -14 0 -19 -2 -12 -5z"/>
<path d="M2485 2959 c4 -5 11 -7 16 -4 5 4 9 2 9 -3 0 -5 18 -17 41 -27 33
-15 42 -16 49 -6 4 8 13 10 20 6 9 -6 11 -4 5 5 -6 10 -4 12 8 7 10 -3 17 -4
17 -2 0 9 -44 27 -74 31 l-31 4 24 -14 c14 -7 32 -12 40 -9 13 4 14 3 2 -5 -8
-6 -21 -8 -30 -5 -14 4 -14 3 -1 -7 13 -10 13 -11 0 -7 -8 2 -14 10 -12 17 2
8 -5 9 -19 5 -16 -6 -21 -4 -17 6 4 10 -4 15 -24 16 -17 1 -26 -2 -23 -8z"/>
<path d="M2968 2963 c6 -2 18 -2 25 0 6 3 1 5 -13 5 -14 0 -19 -2 -12 -5z"/>
<path d="M1851 2944 c0 -11 3 -14 6 -6 3 7 2 16 -1 19 -3 4 -6 -2 -5 -13z"/>
<path d="M2456 2937 c3 -10 9 -15 12 -12 3 3 0 11 -7 18 -10 9 -11 8 -5 -6z"/>
<path d="M2720 2939 c0 -13 28 -18 33 -6 3 7 -3 13 -14 13 -11 0 -19 -3 -19
-7z"/>
<path d="M2760 2921 c0 -5 7 -12 16 -15 22 -9 24 -8 24 9 0 8 -9 15 -20 15
-11 0 -20 -4 -20 -9z"/>
<path d="M2813 2905 c0 -8 4 -15 9 -15 4 0 8 4 8 9 0 6 -4 12 -8 15 -5 3 -9
-1 -9 -9z"/>
<path d="M2480 2906 c0 -2 7 -7 16 -10 8 -3 12 -2 9 4 -6 10 -25 14 -25 6z"/>
<path d="M2520 2900 c0 -5 5 -10 11 -10 5 0 7 5 4 10 -3 6 -8 10 -11 10 -2 0
-4 -4 -4 -10z"/>
<path d="M2673 2903 c4 -6 0 -14 -9 -17 -8 -3 -12 -2 -9 4 9 15 -11 12 -24 -3
-6 -8 -7 -17 -3 -22 4 -4 -6 -5 -21 -1 -23 5 -27 4 -25 -10 2 -12 -5 -17 -25
-18 -16 -1 -31 -6 -35 -12 -4 -5 -20 -15 -35 -22 -20 -9 -27 -17 -23 -29 5
-13 4 -14 -8 -4 -11 9 -18 6 -35 -15 -21 -26 -20 -44 2 -44 8 0 8 3 -1 9 -10
6 -8 13 7 32 11 13 20 19 21 13 0 -5 -5 -15 -12 -22 -9 -9 -9 -12 1 -12 7 0 9
-5 5 -12 -4 -7 -3 -8 4 -4 7 4 12 3 12 -2 0 -5 -11 -14 -25 -20 -14 -6 -25
-17 -25 -24 0 -10 2 -10 9 0 4 7 17 14 29 15 11 0 19 4 16 8 -2 4 1 13 8 21 7
7 13 19 14 26 2 26 4 30 17 28 6 -1 23 -8 36 -15 17 -10 26 -10 35 -1 8 8 7
10 -7 4 -13 -5 -16 -2 -11 10 3 9 1 16 -6 16 -6 0 -8 -5 -4 -12 6 -9 3 -9 -9
0 -9 8 -22 10 -28 6 -8 -5 -9 -3 -4 7 7 12 6 12 -7 1 -10 -8 -19 -9 -22 -4 -9
15 23 23 43 12 18 -9 31 -4 31 12 0 5 -4 6 -10 3 -6 -3 -7 1 -4 10 8 20 29 14
28 -8 -1 -13 13 -15 97 -14 80 2 98 0 94 -11 -3 -8 -5 -16 -5 -18 0 -2 -13 -4
-29 -4 -26 0 -29 -3 -27 -29 1 -17 -2 -28 -6 -25 -4 3 -8 1 -8 -4 0 -6 -8 -9
-17 -8 -10 0 -17 -4 -16 -11 2 -6 -6 -15 -17 -18 -11 -4 -17 -12 -13 -20 4
-12 -4 -14 -41 -9 -36 4 -46 2 -46 -10 0 -8 6 -16 13 -19 6 -2 0 -4 -16 -4
-22 0 -25 2 -16 13 17 21 3 32 -41 32 -28 1 -40 -3 -40 -14 0 -16 36 -19 45
-4 3 6 14 10 23 9 15 0 15 -1 -1 -8 -10 -4 -18 -11 -17 -16 1 -6 -13 -9 -31
-8 l-34 2 30 -8 c17 -5 82 -9 145 -9 63 0 107 2 97 5 -9 2 -15 9 -12 14 3 5 0
6 -8 3 -29 -11 -26 14 3 26 17 7 27 17 23 24 -3 6 -3 8 2 4 9 -8 65 18 65 30
0 5 16 14 35 22 19 7 37 22 41 32 3 10 18 25 34 35 26 15 27 18 12 29 -25 19
-39 17 -16 -2 17 -14 17 -15 1 -10 -10 3 -21 6 -23 6 -2 0 -4 6 -4 14 0 8 -6
16 -14 19 -8 3 -13 -1 -12 -11 1 -14 -8 -17 -47 -17 -26 0 -47 -3 -47 -7 0 -5
-17 -8 -38 -8 -27 0 -41 6 -50 21 -7 12 -11 24 -8 27 3 3 35 4 70 3 35 -1 67
2 70 8 4 6 -7 8 -31 4 -35 -6 -37 -5 -24 10 11 14 11 18 -5 23 -11 4 -23 9
-28 12 -5 3 -6 0 -3 -5z m-53 -78 c14 -19 14 -19 -2 -6 -10 7 -18 18 -18 24 0
6 1 8 3 6 1 -2 9 -13 17 -24z m-15 -15 c3 -5 2 -10 -4 -10 -5 0 -13 5 -16 10
-3 6 -2 10 4 10 5 0 13 -4 16 -10z m-135 -75 c0 -8 -2 -15 -4 -15 -2 0 -6 7
-10 15 -3 8 -1 15 4 15 6 0 10 -7 10 -15z m-3 -101 c-3 -3 -12 -4 -19 -1 -8 3
-5 6 6 6 11 1 17 -2 13 -5z m112 -13 c7 -5 9 -11 5 -14 -5 -3 -15 1 -22 9 -14
16 -5 18 17 5z m45 -9 c3 -5 -1 -9 -9 -9 -8 0 -15 4 -15 9 0 4 4 8 9 8 6 0 12
-4 15 -8z"/>
<path d="M3110 2874 c-26 -14 -12 -18 27 -8 13 4 20 10 17 15 -7 11 -13 10
-44 -7z"/>
<path d="M3390 2872 c-34 -19 -80 -74 -80 -97 0 -7 11 -10 28 -7 36 5 72 -31
56 -56 -6 -9 -20 -22 -31 -27 -11 -6 -18 -16 -15 -24 3 -10 0 -12 -12 -8 -33
13 14 -49 54 -72 21 -12 39 -21 41 -21 2 0 4 16 4 36 0 72 67 73 73 1 3 -29 6
-35 20 -30 37 13 73 47 93 84 l20 40 -25 -7 c-34 -8 -66 12 -66 41 0 28 32 49
61 42 46 -12 -6 78 -61 106 l-35 17 -3 -32 c-8 -76 -68 -79 -81 -4 l-6 36 -35
-18z m112 -109 c26 -23 23 -59 -7 -79 -23 -15 -27 -15 -50 0 -32 21 -33 59 -3
80 28 20 37 20 60 -1z"/>
<path d="M2906 2863 c-6 -14 22 -26 37 -16 7 4 37 10 67 13 l55 6 -77 5 c-54
3 -79 0 -82 -8z"/>
<path d="M3128 2838 c5 -5 16 -8 23 -6 8 3 3 7 -10 11 -17 4 -21 3 -13 -5z"/>
<path d="M3190 2819 c0 -5 5 -7 10 -4 6 3 10 8 10 11 0 2 -4 4 -10 4 -5 0 -10
-5 -10 -11z"/>
<path d="M3754 2774 c1 -41 4 -53 14 -49 8 3 18 5 23 5 14 0 89 71 89 84 0 7
-24 12 -63 13 l-63 1 0 -54z"/>
<path d="M2860 2770 c-13 -8 -12 -10 3 -10 9 0 17 5 17 10 0 12 -1 12 -20 0z"/>
<path d="M2588 2733 c6 -2 18 -2 25 0 6 3 1 5 -13 5 -14 0 -19 -2 -12 -5z"/>
<path d="M3125 2733 c-11 -3 -26 -10 -34 -17 -11 -9 -6 -12 24 -17 21 -4 46
-4 57 -2 22 6 24 29 2 37 -17 6 -18 6 -49 -1z"/>
<path d="M3008 2723 c7 -3 16 -2 19 1 4 3 -2 6 -13 5 -11 0 -14 -3 -6 -6z"/>
<path d="M2558 2693 c7 -3 16 -2 19 1 4 3 -2 6 -13 5 -11 0 -14 -3 -6 -6z"/>
<path d="M3760 2688 c0 -7 -3 -23 -6 -35 -6 -21 -3 -23 35 -23 50 0 55 19 12
49 -34 24 -41 26 -41 9z"/>
<path d="M2118 2643 c7 -3 16 -2 19 1 4 3 -2 6 -13 5 -11 0 -14 -3 -6 -6z"/>
<path d="M2376 2612 c-3 -4 4 -9 15 -9 23 -2 25 3 4 10 -8 4 -16 3 -19 -1z"/>
<path d="M2068 2503 c7 -3 16 -2 19 1 4 3 -2 6 -13 5 -11 0 -14 -3 -6 -6z"/>
<path d="M2125 2500 c3 -5 8 -10 11 -10 2 0 4 5 4 10 0 6 -5 10 -11 10 -5 0
-7 -4 -4 -10z"/>
<path d="M2220 2500 c-11 -7 -1 -9 33 -8 26 1 47 6 47 10 0 11 -62 10 -80 -2z"/>
<path d="M2338 2503 c7 -3 16 -2 19 1 4 3 -2 6 -13 5 -11 0 -14 -3 -6 -6z"/>
<path d="M2380 2500 c0 -5 16 -10 35 -10 19 0 35 5 35 10 0 6 -16 10 -35 10
-19 0 -35 -4 -35 -10z"/>
<path d="M2470 2500 c0 -5 7 -10 15 -10 8 0 15 5 15 10 0 6 -7 10 -15 10 -8 0
-15 -4 -15 -10z"/>
<path d="M2520 2500 c0 -5 18 -10 41 -10 24 0 38 4 34 10 -3 6 -22 10 -41 10
-19 0 -34 -4 -34 -10z"/>
<path d="M2620 2499 c0 -5 19 -9 42 -9 49 0 47 5 -4 13 -21 3 -38 2 -38 -4z"/>
<path d="M2770 2500 c0 -5 5 -10 11 -10 5 0 7 5 4 10 -3 6 -8 10 -11 10 -2 0
-4 -4 -4 -10z"/>
<path d="M2825 2500 c-3 -5 -1 -10 4 -10 6 0 11 5 11 10 0 6 -2 10 -4 10 -3 0
-8 -4 -11 -10z"/>
<path d="M2860 2500 c0 -5 5 -10 11 -10 5 0 7 5 4 10 -3 6 -8 10 -11 10 -2 0
-4 -4 -4 -10z"/>
<path d="M808 2493 c17 -2 47 -2 65 0 17 2 3 4 -33 4 -36 0 -50 -2 -32 -4z"/>
<path d="M2168 2483 c7 -3 16 -2 19 1 4 3 -2 6 -13 5 -11 0 -14 -3 -6 -6z"/>
<path d="M2338 2483 c6 -2 18 -2 25 0 6 3 1 5 -13 5 -14 0 -19 -2 -12 -5z"/>
<path d="M2139 2411 c13 -8 251 -3 260 5 2 2 -58 4 -135 4 -84 0 -134 -4 -125
-9z"/>
<path d="M2680 2410 c-10 -6 214 -9 620 -8 440 1 575 4 440 8 -304 11 -1043
11 -1060 0z"/>
<path d="M1848 2323 c7 -3 16 -2 19 1 4 3 -2 6 -13 5 -11 0 -14 -3 -6 -6z"/>
<path d="M1985 2319 c50 -4 349 -7 665 -6 391 0 519 3 400 8 -235 9 -1181 8
-1065 -2z"/>
</g>
</svg>
